999
dxfrw 0.6.3
  0
SECTION
  2
HEADER
  9
$ACADVER
  1
AC1021
  9
$DWGCODEPAGE
  3
ANSI_1252
  9
$INSBASE
 10
0
 20
0
 30
0
  9
$EXTMIN
 10
0
 20
0
 30
0
  9
$EXTMAX
 10
340.8440000000001
 20
536.928
 30
0
  9
$LIMMIN
 10
0
 20
0
  9
$LIMMAX
 10
420
 20
297
  9
$ORTHOMODE
 70
    0
  9
$REGENMODE
 70
    1
  9
$FILLMODE
 70
    1
  9
$QTEXTMODE
 70
    0
  9
$MIRRTEXT
 70
    0
  9
$LTSCALE
 40
1
  9
$ATTMODE
 70
    0
  9
$TEXTSIZE
 40
2.5
  9
$TRACEWID
 40
15.68
  9
$TEXTSTYLE
  7
STANDARD
  9
$CLAYER
  8
RoleEducation
  9
$CELTYPE
  6
BYLAYER
  9
$CECOLOR
 62
  256
  9
$CELTSCALE
 40
1
  9
$DISPSILH
 70
    0
  9
$DIMSCALE
 40
2.5
  9
$DIMASZ
 40
0.0082021
  9
$DIMEXO
 40
0.00205052
  9
$DIMDLI
 40
3.75
  9
$DIMRND
 40
0
  9
$DIMDLE
 40
0
  9
$DIMEXE
 40
0.00410105
  9
$DIMTP
 40
0
  9
$DIMTM
 40
0
  9
$DIMTXT
 40
0.0082021
  9
$DIMCEN
 40
2.5
  9
$DIMTSZ
 40
0
  9
$DIMTOL
 70
    0
  9
$DIMLIM
 70
    0
  9
$DIMTIH
 70
    0
  9
$DIMTOH
 70
    0
  9
$DIMSE1
 70
    0
  9
$DIMSE2
 70
    0
  9
$DIMTAD
 70
    1
  9
$DIMZIN
 70
    8
  9
$DIMBLK
  1

  9
$DIMASO
 70
    1
  9
$DIMSHO
 70
    1
  9
$DIMPOST
  1

  9
$DIMAPOST
  1

  9
$DIMALT
 70
    0
  9
$DIMALTD
 70
    3
  9
$DIMALTF
 40
0.03937
  9
$DIMLFAC
 40
1
  9
$DIMTOFL
 70
    1
  9
$DIMTVP
 40
0
  9
$DIMTIX
 70
    0
  9
$DIMSOXD
 70
    0
  9
$DIMSAH
 70
    0
  9
$DIMBLK1
  1

  9
$DIMBLK2
  1

  9
$DIMSTYLE
  2
STANDARD
  9
$DIMCLRD
 70
    0
  9
$DIMCLRE
 70
    0
  9
$DIMCLRT
 70
    0
  9
$DIMTFAC
 40
1
  9
$DIMGAP
 40
0.00205052
  9
$DIMJUST
 70
    0
  9
$DIMSD1
 70
    0
  9
$DIMSD2
 70
    0
  9
$DIMTOLJ
 70
    0
  9
$DIMTZIN
 70
    8
  9
$DIMALTZ
 70
    0
  9
$DIMALTTZ
 70
    0
  9
$DIMUPT
 70
    0
  9
$DIMDEC
 70
    2
  9
$DIMTDEC
 70
    2
  9
$DIMALTU
 70
    2
  9
$DIMALTTD
 70
    3
  9
$DIMTXSTY
  7
standard
  9
$DIMAUNIT
 70
    0
  9
$DIMADEC
 70
    0
  9
$DIMALTRND
 40
0
  9
$DIMAZIN
 70
    0
  9
$DIMDSEP
 70
   44
  9
$DIMATFIT
 70
    3
  9
$DIMFRAC
 70
    0
  9
$DIMLDRBLK
  1
STANDARD
  9
$DIMLUNIT
 70
    2
  9
$DIMLWD
 70
   -2
  9
$DIMLWE
 70
   -2
  9
$DIMTMOVE
 70
    0
  9
$DIMFXL
 40
1
  9
$DIMFXLON
 70
    0
  9
$DIMJOGANG
 40
0.7854
  9
$DIMTFILL
 70
    0
  9
$DIMTFILLCLR
 70
    0
  9
$DIMARCSYM
 70
    0
  9
$DIMLTYPE
  6

  9
$DIMLTEX1
  6

  9
$DIMLTEX2
  6

  9
$LUNITS
 70
    2
  9
$LUPREC
 70
    4
  9
$SKETCHINC
 40
1
  9
$FILLETRAD
 40
0
  9
$AUNITS
 70
    0
  9
$AUPREC
 70
    2
  9
$MENU
  1
.
  9
$ELEVATION
 40
0
  9
$PELEVATION
 40
0
  9
$THICKNESS
 40
0
  9
$LIMCHECK
 70
    0
  9
$CHAMFERA
 40
0
  9
$CHAMFERB
 40
0
  9
$CHAMFERC
 40
0
  9
$CHAMFERD
 40
0
  9
$SKPOLY
 70
    0
  9
$USRTIMER
 70
    1
  9
$ANGBASE
 50
0
  9
$ANGDIR
 70
    0
  9
$PDMODE
 70
   34
  9
$PDSIZE
 40
0
  9
$PLINEWID
 40
0
  9
$SPLFRAME
 70
    0
  9
$SPLINETYPE
 70
    2
  9
$SPLINESEGS
 70
    8
  9
$HANDSEED
  5
20000
  9
$SURFTAB1
 70
    6
  9
$SURFTAB2
 70
    6
  9
$SURFTYPE
 70
    6
  9
$SURFU
 70
    6
  9
$SURFV
 70
    6
  9
$UCSBASE
  2

  9
$UCSNAME
  2

  9
$UCSORG
 10
0
 20
0
 30
0
  9
$UCSXDIR
 10
1
 20
0
 30
0
  9
$UCSYDIR
 10
0
 20
1
 30
0
  9
$UCSORTHOREF
  2

  9
$UCSORTHOVIEW
 70
    0
  9
$UCSORGTOP
 10
0
 20
0
 30
0
  9
$UCSORGBOTTOM
 10
0
 20
0
 30
0
  9
$UCSORGLEFT
 10
0
 20
0
 30
0
  9
$UCSORGRIGHT
 10
0
 20
0
 30
0
  9
$UCSORGFRONT
 10
0
 20
0
 30
0
  9
$UCSORGBACK
 10
0
 20
0
 30
0
  9
$PUCSBASE
  2

  9
$PUCSNAME
  2

  9
$PUCSORG
 10
0
 20
0
 30
0
  9
$PUCSXDIR
 10
1
 20
0
 30
0
  9
$PUCSYDIR
 10
0
 20
1
 30
0
  9
$PUCSORTHOREF
  2

  9
$PUCSORTHOVIEW
 70
    0
  9
$PUCSORGTOP
 10
0
 20
0
 30
0
  9
$PUCSORGBOTTOM
 10
0
 20
0
 30
0
  9
$PUCSORGLEFT
 10
0
 20
0
 30
0
  9
$PUCSORGRIGHT
 10
0
 20
0
 30
0
  9
$PUCSORGFRONT
 10
0
 20
0
 30
0
  9
$PUCSORGBACK
 10
0
 20
0
 30
0
  9
$USERI1
 70
    0
  9
$USERI2
 70
    0
  9
$USERI3
 70
    0
  9
$USERI4
 70
    0
  9
$USERI5
 70
    0
  9
$USERR1
 40
0
  9
$USERR2
 40
0
  9
$USERR3
 40
0
  9
$USERR4
 40
0
  9
$USERR5
 40
0
  9
$WORLDVIEW
 70
    1
  9
$SHADEDGE
 70
    3
  9
$SHADEDIF
 70
   70
  9
$TILEMODE
 70
    1
  9
$MAXACTVP
 70
   64
  9
$PINSBASE
 10
0.07260522811486796
 20
0.01387795275590551
 30
0
  9
$PLIMCHECK
 70
    0
  9
$PEXTMIN
 10
0
 20
0
 30
0
  9
$PEXTMAX
 10
0
 20
0
 30
0
  9
$GRIDMODE
 70
    1
  9
$SNAPSTYLE
 70
    0
  9
$GRIDUNIT
 10
0
 20
0
  9
$PLIMMIN
 10
0
 20
0
  9
$PLIMMAX
 10
0.7086614173228346
 20
0.9153543307086613
  9
$UNITMODE
 70
    0
  9
$VISRETAIN
 70
    1
  9
$PLINEGEN
 70
    0
  9
$PSLTSCALE
 70
    1
  9
$TREEDEPTH
 70
 3020
  9
$CMLSTYLE
  2
Standard
  9
$CMLJUST
 70
    0
  9
$CMLSCALE
 40
20
  9
$PROXYGRAPHICS
 70
    1
  9
$MEASUREMENT
 70
    0
  9
$CELWEIGHT
370
   -1
  9
$ENDCAPS
280
    0
  9
$JOINSTYLE
280
    0
  9
$LWDISPLAY
290
    0
  9
$INSUNITS
 70
    2
  9
$HYPERLINKBASE
  1

  9
$STYLESHEET
  1

  9
$XEDIT
290
    1
  9
$CEPSNTYPE
380
    0
  9
$PSTYLEMODE
290
    1
  9
$EXTNAMES
290
    1
  9
$PSVPSCALE
 40
0.002857142857142857
  9
$OLESTARTUP
290
    0
  9
$SORTENTS
280
  127
  9
$INDEXCTL
280
    0
  9
$HIDETEXT
280
    1
  9
$XCLIPFRAME
290
    0
  9
$HALOGAP
280
    0
  9
$OBSCOLOR
 70
  257
  9
$OBSLTYPE
280
    0
  9
$INTERSECTIONDISPLAY
280
    0
  9
$INTERSECTIONCOLOR
 70
  257
  9
$DIMASSOC
280
    1
  9
$PROJECTNAME
  1

  9
$CAMERADISPLAY
290
    0
  9
$LENSLENGTH
 40
50
  9
$CAMERAHEIGHT
 40
0
  9
$STEPSPERSEC
 40
2
  9
$STEPSIZE
 40
50
  9
$3DDWFPREC
 40
2
  9
$PSOLWIDTH
 40
5
  9
$PSOLHEIGHT
 40
80
  9
$LOFTANG1
 40
1.570796326794897
  9
$LOFTANG2
 40
1.570796326794897
  9
$LOFTMAG1
 40
0
  9
$LOFTMAG2
 40
0
  9
$LOFTPARAM
 70
    7
  9
$LOFTNORMALS
280
    1
  9
$LATITUDE
 40
1
  9
$LONGITUDE
 40
1
  9
$NORTHDIRECTION
 40
0
  9
$TIMEZONE
 70
-8000
  9
$LIGHTGLYPHDISPLAY
280
    1
  9
$TILEMODELIGHTSYNCH
280
    1
  9
$SOLIDHIST
280
    1
  9
$SHOWHIST
280
    1
  9
$DWFFRAME
280
    2
  9
$DGNFRAME
280
    0
  9
$REALWORLDSCALE
290
    1
  9
$INTERFERECOLOR
 62
    1
  9
$CSHADOW
280
    0
  9
$SHADOWPLANELOCATION
 40
0
  0
ENDSEC
  0
SECTION
  2
CLASSES
  0
ENDSEC
  0
SECTION
  2
TABLES
  0
TABLE
  2
VPORT
  5
8
330
0
100
AcDbSymbolTable
 70
    1
  0
VPORT
  5
31
330
2
100
AcDbSymbolTableRecord
100
AcDbViewportTableRecord
  2
*ACTIVE
 70
    0
 10
0
 20
0
 11
1
 21
1
 12
107.4199756398039
 22
171.8637201356433
 13
0
 23
0
 14
10
 24
10
 15
10
 25
10
 16
0
 26
0
 36
1
 17
0
 27
0
 37
0
 40
132.4310708501457
 41
1.358431860609832
 42
50
 43
0
 44
0
 50
0
 51
0
 71
    0
 72
  100
 73
    1
 74
    3
 75
    0
 76
    1
 77
    0
 78
    0
281
    0
 65
    1
110
0
120
0
130
0
111
1
121
0
131
0
112
0
122
1
132
0
 79
    0
146
0
348
10020
 60
    7
 61
    5
292
1
282
    1
141
0
142
0
 63
  250
421
3358443
  0
ENDTAB
  0
TABLE
  2
LTYPE
  5
5
330
0
100
AcDbSymbolTable
 70
    4
  0
LTYPE
  5
14
330
5
100
AcDbSymbolTableRecord
100
AcDbLinetypeTableRecord
  2
ByBlock
 70
    0
  3

 72
   65
 73
    0
 40
0
  0
LTYPE
  5
15
330
5
100
AcDbSymbolTableRecord
100
AcDbLinetypeTableRecord
  2
ByLayer
 70
    0
  3

 72
   65
 73
    0
 40
0
  0
LTYPE
  5
16
330
5
100
AcDbSymbolTableRecord
100
AcDbLinetypeTableRecord
  2
Continuous
 70
    0
  3
Solid line
 72
   65
 73
    0
 40
0
  0
LTYPE
  5
32
330
5
100
AcDbSymbolTableRecord
100
AcDbLinetypeTableRecord
  2
DOT
 70
    0
  3
Dot . . . . . . . . . . . . . . . . . . . . . .
 72
   65
 73
    2
 40
6.35
 49
0
 74
    0
 49
-6.35
 74
    0
  0
LTYPE
  5
33
330
5
100
AcDbSymbolTableRecord
100
AcDbLinetypeTableRecord
  2
DOTTINY
 70
    0
  3
Dot (.15x) .....................................
 72
   65
 73
    2
 40
0.9525
 49
0
 74
    0
 49
-0.9525
 74
    0
  0
LTYPE
  5
34
330
5
100
AcDbSymbolTableRecord
100
AcDbLinetypeTableRecord
  2
DOT2
 70
    0
  3
Dot (.5x) .....................................
 72
   65
 73
    2
 40
3.175
 49
0
 74
    0
 49
-3.175
 74
    0
  0
LTYPE
  5
35
330
5
100
AcDbSymbolTableRecord
100
AcDbLinetypeTableRecord
  2
DOTX2
 70
    0
  3
Dot (2x) .  .  .  .  .  .  .  .  .  .  .  .  .
 72
   65
 73
    2
 40
12.7
 49
0
 74
    0
 49
-12.7
 74
    0
  0
LTYPE
  5
36
330
5
100
AcDbSymbolTableRecord
100
AcDbLinetypeTableRecord
  2
DASHED
 70
    0
  3
Dashed _ _ _ _ _ _ _ _ _ _ _ _ _ _ _ _ _
 72
   65
 73
    2
 40
19.05
 49
12.7
 74
    0
 49
-6.35
 74
    0
  0
LTYPE
  5
37
330
5
100
AcDbSymbolTableRecord
100
AcDbLinetypeTableRecord
  2
DASHEDTINY
 70
    0
  3
Dashed (.15x) _ _ _ _ _ _ _ _ _ _ _ _ _ _ _ _ _
 72
   65
 73
    2
 40
2.8575
 49
1.905
 74
    0
 49
-0.9525
 74
    0
  0
LTYPE
  5
38
330
5
100
AcDbSymbolTableRecord
100
AcDbLinetypeTableRecord
  2
DASHED2
 70
    0
  3
Dashed (.5x) _ _ _ _ _ _ _ _ _ _ _ _ _ _ _ _ _
 72
   65
 73
    2
 40
9.524999999999999
 49
6.35
 74
    0
 49
-3.175
 74
    0
  0
LTYPE
  5
39
330
5
100
AcDbSymbolTableRecord
100
AcDbLinetypeTableRecord
  2
DASHEDX2
 70
    0
  3
Dashed (2x) ____  ____  ____  ____  ____  ___
 72
   65
 73
    2
 40
38.09999999999999
 49
25.4
 74
    0
 49
-12.7
 74
    0
  0
LTYPE
  5
3A
330
5
100
AcDbSymbolTableRecord
100
AcDbLinetypeTableRecord
  2
DASHDOT
 70
    0
  3
Dash dot __ . __ . __ . __ . __ . __ . __ . __
 72
   65
 73
    4
 40
25.4
 49
12.7
 74
    0
 49
-6.35
 74
    0
 49
0
 74
    0
 49
-6.35
 74
    0
  0
LTYPE
  5
3B
330
5
100
AcDbSymbolTableRecord
100
AcDbLinetypeTableRecord
  2
DASHDOTTINY
 70
    0
  3
Dash dot (.15x) _._._._._._._._._._._._._._._.
 72
   65
 73
    4
 40
3.81
 49
1.905
 74
    0
 49
-0.9525
 74
    0
 49
0
 74
    0
 49
-0.9525
 74
    0
  0
LTYPE
  5
3C
330
5
100
AcDbSymbolTableRecord
100
AcDbLinetypeTableRecord
  2
DASHDOT2
 70
    0
  3
Dash dot (.5x) _._._._._._._._._._._._._._._.
 72
   65
 73
    4
 40
12.7
 49
6.35
 74
    0
 49
-3.175
 74
    0
 49
0
 74
    0
 49
-3.175
 74
    0
  0
LTYPE
  5
3D
330
5
100
AcDbSymbolTableRecord
100
AcDbLinetypeTableRecord
  2
DASHDOTX2
 70
    0
  3
Dash dot (2x) ____  .  ____  .  ____  .  ___
 72
   65
 73
    4
 40
50.8
 49
25.4
 74
    0
 49
-12.7
 74
    0
 49
0
 74
    0
 49
-12.7
 74
    0
  0
LTYPE
  5
3E
330
5
100
AcDbSymbolTableRecord
100
AcDbLinetypeTableRecord
  2
DIVIDE
 70
    0
  3
Divide ____ . . ____ . . ____ . . ____ . . ____
 72
   65
 73
    6
 40
31.75
 49
12.7
 74
    0
 49
-6.35
 74
    0
 49
0
 74
    0
 49
-6.35
 74
    0
 49
0
 74
    0
 49
-6.35
 74
    0
  0
LTYPE
  5
3F
330
5
100
AcDbSymbolTableRecord
100
AcDbLinetypeTableRecord
  2
DIVIDETINY
 70
    0
  3
Divide (.15x) __..__..__..__..__..__..__..__.._
 72
   65
 73
    6
 40
4.7625
 49
1.905
 74
    0
 49
-0.9525
 74
    0
 49
0
 74
    0
 49
-0.9525
 74
    0
 49
0
 74
    0
 49
-0.9525
 74
    0
  0
LTYPE
  5
40
330
5
100
AcDbSymbolTableRecord
100
AcDbLinetypeTableRecord
  2
DIVIDE2
 70
    0
  3
Divide (.5x) __..__..__..__..__..__..__..__.._
 72
   65
 73
    6
 40
15.875
 49
6.35
 74
    0
 49
-3.175
 74
    0
 49
0
 74
    0
 49
-3.175
 74
    0
 49
0
 74
    0
 49
-3.175
 74
    0
  0
LTYPE
  5
41
330
5
100
AcDbSymbolTableRecord
100
AcDbLinetypeTableRecord
  2
DIVIDEX2
 70
    0
  3
Divide (2x) ________  .  .  ________  .  .  _
 72
   65
 73
    6
 40
63.5
 49
25.4
 74
    0
 49
-12.7
 74
    0
 49
0
 74
    0
 49
-12.7
 74
    0
 49
0
 74
    0
 49
-12.7
 74
    0
  0
LTYPE
  5
42
330
5
100
AcDbSymbolTableRecord
100
AcDbLinetypeTableRecord
  2
BORDER
 70
    0
  3
Border __ __ . __ __ . __ __ . __ __ . __ __ .
 72
   65
 73
    6
 40
44.45
 49
12.7
 74
    0
 49
-6.35
 74
    0
 49
12.7
 74
    0
 49
-6.35
 74
    0
 49
0
 74
    0
 49
-6.35
 74
    0
  0
LTYPE
  5
43
330
5
100
AcDbSymbolTableRecord
100
AcDbLinetypeTableRecord
  2
BORDERTINY
 70
    0
  3
Border (.15x) __.__.__.__.__.__.__.__.__.__.__.
 72
   65
 73
    6
 40
6.6675
 49
1.905
 74
    0
 49
-0.9525
 74
    0
 49
1.905
 74
    0
 49
-0.9525
 74
    0
 49
0
 74
    0
 49
-0.9525
 74
    0
  0
LTYPE
  5
44
330
5
100
AcDbSymbolTableRecord
100
AcDbLinetypeTableRecord
  2
BORDER2
 70
    0
  3
Border (.5x) __.__.__.__.__.__.__.__.__.__.__.
 72
   65
 73
    6
 40
22.225
 49
6.35
 74
    0
 49
-3.175
 74
    0
 49
6.35
 74
    0
 49
-3.175
 74
    0
 49
0
 74
    0
 49
-3.175
 74
    0
  0
LTYPE
  5
45
330
5
100
AcDbSymbolTableRecord
100
AcDbLinetypeTableRecord
  2
BORDERX2
 70
    0
  3
Border (2x) ____  ____  .  ____  ____  .  ___
 72
   65
 73
    6
 40
88.89999999999999
 49
25.4
 74
    0
 49
-12.7
 74
    0
 49
25.4
 74
    0
 49
-12.7
 74
    0
 49
0
 74
    0
 49
-12.7
 74
    0
  0
LTYPE
  5
46
330
5
100
AcDbSymbolTableRecord
100
AcDbLinetypeTableRecord
  2
CENTER
 70
    0
  3
Center ____ _ ____ _ ____ _ ____ _ ____ _ ____
 72
   65
 73
    4
 40
50.8
 49
31.75
 74
    0
 49
-6.35
 74
    0
 49
6.35
 74
    0
 49
-6.35
 74
    0
  0
LTYPE
  5
47
330
5
100
AcDbSymbolTableRecord
100
AcDbLinetypeTableRecord
  2
CENTERTINY
 70
    0
  3
Center (.15x) ___ _ ___ _ ___ _ ___ _ ___ _ ___
 72
   65
 73
    4
 40
7.62
 49
4.7625
 74
    0
 49
-0.9525
 74
    0
 49
0.9525
 74
    0
 49
-0.9525
 74
    0
  0
LTYPE
  5
48
330
5
100
AcDbSymbolTableRecord
100
AcDbLinetypeTableRecord
  2
CENTER2
 70
    0
  3
Center (.5x) ___ _ ___ _ ___ _ ___ _ ___ _ ___
 72
   65
 73
    4
 40
28.575
 49
19.05
 74
    0
 49
-3.175
 74
    0
 49
3.175
 74
    0
 49
-3.175
 74
    0
  0
LTYPE
  5
49
330
5
100
AcDbSymbolTableRecord
100
AcDbLinetypeTableRecord
  2
CENTERX2
 70
    0
  3
Center (2x) ________  __  ________  __  _____
 72
   65
 73
    4
 40
101.6
 49
63.5
 74
    0
 49
-12.7
 74
    0
 49
12.7
 74
    0
 49
-12.7
 74
    0
  0
ENDTAB
  0
TABLE
  2
LAYER
  5
2
330
0
100
AcDbSymbolTable
 70
    1
  0
LAYER
  5
10
330
2
100
AcDbSymbolTableRecord
100
AcDbLayerTableRecord
  2
0
 70
    5
 62
    7
  6
CONTINUOUS
370
    0
390
F
  0
LAYER
  5
4A
330
2
100
AcDbSymbolTableRecord
100
AcDbLayerTableRecord
  2
InfraBuilding
 70
    5
 62
    8
  6
CONTINUOUS
370
    0
390
F
  0
LAYER
  5
4B
330
2
100
AcDbSymbolTableRecord
100
AcDbLayerTableRecord
  2
InfraPaint
 70
    5
 62
    2
  6
CONTINUOUS
370
    0
390
F
  0
LAYER
  5
4C
330
2
100
AcDbSymbolTableRecord
100
AcDbLayerTableRecord
  2
InfraPavement
 70
    5
 62
    9
  6
CONTINUOUS
370
    0
390
F
  0
LAYER
  5
4D
330
2
100
AcDbSymbolTableRecord
100
AcDbLayerTableRecord
  2
MapSatDark
 70
    5
 62
    7
  6
CONTINUOUS
370
    0
390
F
  0
LAYER
  5
4E
330
2
100
AcDbSymbolTableRecord
100
AcDbLayerTableRecord
  2
MapSatLight
 70
    4
 62
    7
  6
CONTINUOUS
370
    0
390
F
  0
LAYER
  5
4F
330
2
100
AcDbSymbolTableRecord
100
AcDbLayerTableRecord
  2
MapStreet
 70
    5
 62
    7
  6
CONTINUOUS
370
    0
390
F
  0
LAYER
  5
50
330
2
100
AcDbSymbolTableRecord
100
AcDbLayerTableRecord
  2
RoleEducation
 70
    0
 62
   54
420
11184640
  6
CONTINUOUS
370
    0
390
F
  0
LAYER
  5
51
330
2
100
AcDbSymbolTableRecord
100
AcDbLayerTableRecord
  2
RoleGreeter
 70
    5
 62
    3
  6
CONTINUOUS
370
    0
390
F
  0
LAYER
  5
52
330
2
100
AcDbSymbolTableRecord
100
AcDbLayerTableRecord
  2
RoleHubManager
 70
    5
 62
    2
  6
CONTINUOUS
370
    0
390
F
  0
LAYER
  5
53
330
2
100
AcDbSymbolTableRecord
100
AcDbLayerTableRecord
  2
RoleInfo
 70
    5
 62
    1
  6
CONTINUOUS
370
    0
390
F
  0
LAYER
  5
54
330
2
100
AcDbSymbolTableRecord
100
AcDbLayerTableRecord
  2
RoleLiaison
 70
    5
 62
    7
420
263172
  6
CONTINUOUS
370
    0
390
F
  0
LAYER
  5
55
330
2
100
AcDbSymbolTableRecord
100
AcDbLayerTableRecord
  2
RoleMessageTaker
 70
    5
 62
    3
  6
CONTINUOUS
370
    0
390
F
  0
LAYER
  5
56
330
2
100
AcDbSymbolTableRecord
100
AcDbLayerTableRecord
  2
RoleRadio
 70
    5
 62
  255
420
16514043
  6
CONTINUOUS
370
    0
390
F
  0
LAYER
  5
57
330
2
100
AcDbSymbolTableRecord
100
AcDbLayerTableRecord
  2
RoleResources
 70
    5
 62
   96
420
32768
  6
CONTINUOUS
370
    0
390
F
  0
LAYER
  5
58
330
2
100
AcDbSymbolTableRecord
100
AcDbLayerTableRecord
  2
RoleVolunteers
 70
    5
 62
    5
  6
CONTINUOUS
370
    0
390
F
  0
LAYER
  5
59
330
2
100
AcDbSymbolTableRecord
100
AcDbLayerTableRecord
  2
StationChange
 70
    5
 62
  200
420
11141375
  6
CONTINUOUS
370
    0
390
F
  0
LAYER
  5
5A
330
2
100
AcDbSymbolTableRecord
100
AcDbLayerTableRecord
  2
StationLoo
 70
    5
 62
    4
  6
CONTINUOUS
370
    0
390
F
  0
LAYER
  5
5B
330
2
100
AcDbSymbolTableRecord
100
AcDbLayerTableRecord
  2
StationPersonalPosting
 70
    5
 62
   40
420
16755200
  6
CONTINUOUS
370
    0
390
F
  0
ENDTAB
  0
TABLE
  2
STYLE
  5
3
330
0
100
AcDbSymbolTable
 70
    3
  0
STYLE
  5
5C
330
2
100
AcDbSymbolTableRecord
100
AcDbTextStyleTableRecord
  2
iso3098
 70
    0
 40
0
 41
1
 50
0
 71
    0
 42
1
  3
iso3098
  4

  0
STYLE
  5
5D
330
2
100
AcDbSymbolTableRecord
100
AcDbTextStyleTableRecord
  2
standard
 70
    0
 40
0
 41
1
 50
0
 71
    0
 42
1
  3
standard
  4

  0
ENDTAB
  0
TABLE
  2
VIEW
  5
6
330
0
100
AcDbSymbolTable
 70
    0
  0
ENDTAB
  0
TABLE
  2
UCS
  5
7
330
0
100
AcDbSymbolTable
 70
    0
  0
ENDTAB
  0
TABLE
  2
APPID
  5
9
330
0
100
AcDbSymbolTable
 70
    1
  0
APPID
  5
12
330
9
100
AcDbSymbolTableRecord
100
AcDbRegAppTableRecord
  2
ACAD
 70
    0
  0
APPID
  5
5E
330
9
100
AcDbSymbolTableRecord
100
AcDbRegAppTableRecord
  2
LibreCad
 70
    0
  0
ENDTAB
  0
TABLE
  2
DIMSTYLE
  5
A
330
0
100
AcDbSymbolTable
 70
    1
100
AcDbDimStyleTable
 71
    1
  0
DIMSTYLE
105
5F
330
A
100
AcDbSymbolTableRecord
100
AcDbDimStyleTableRecord
  2
Standard
 70
    0
 40
2.5
 41
0.0082021
 42
0.00205052
 43
0.38
 44
0.00410105
 45
0
 46
0
 47
0
 48
0
 49
1
140
0.0082021
141
0.09
142
0
143
25.4
144
1
145
0
146
1
147
0.00205052
148
0
 71
    0
 72
    0
 73
    0
 74
    1
 75
    0
 76
    0
 77
    0
 78
    8
 79
    0
170
    0
171
    2
172
    0
173
    0
174
    0
175
    0
176
    0
177
    0
178
    0
179
    0
271
    2
272
    4
273
    2
274
    2
275
    0
276
    0
277
    2
278
   44
279
    0
280
    0
281
    0
282
    0
283
    1
284
    0
285
    0
286
    0
288
    0
289
    3
340
standard
341

371
   -2
372
   -2
  0
ENDTAB
  0
TABLE
  2
BLOCK_RECORD
  5
1
330
0
100
AcDbSymbolTable
 70
    2
  0
BLOCK_RECORD
  5
1F
330
1
100
AcDbSymbolTableRecord
100
AcDbBlockTableRecord
  2
*Model_Space
 70
    0
280
    1
281
    0
  0
BLOCK_RECORD
  5
1E
330
1
100
AcDbSymbolTableRecord
100
AcDbBlockTableRecord
  2
*Paper_Space
 70
    0
280
    1
281
    0
  0
BLOCK_RECORD
  5
60
330
1
100
AcDbSymbolTableRecord
100
AcDbBlockTableRecord
  2
Tent_10x10
 70
    0
280
    1
281
    0
  0
BLOCK_RECORD
  5
63
330
1
100
AcDbSymbolTableRecord
100
AcDbBlockTableRecord
  2
Tent_10x20
 70
    0
280
    1
281
    0
  0
BLOCK_RECORD
  5
66
330
1
100
AcDbSymbolTableRecord
100
AcDbBlockTableRecord
  2
FoldedTarp_10x5
 70
    0
280
    1
281
    0
  0
BLOCK_RECORD
  5
69
330
1
100
AcDbSymbolTableRecord
100
AcDbBlockTableRecord
  2
Station_5x5
 70
    0
280
    1
281
    0
  0
BLOCK_RECORD
  5
6C
330
1
100
AcDbSymbolTableRecord
100
AcDbBlockTableRecord
  2
Tent_10x10_thru
 70
    0
280
    1
281
    0
  0
ENDTAB
  0
ENDSEC
  0
SECTION
  2
BLOCKS
  0
BLOCK
  5
20
330
1F
100
AcDbEntity
  8
0
100
AcDbBlockBegin
  2
*Model_Space
 70
    0
 10
0
 20
0
 30
0
  3
*Model_Space
  1

  0
ENDBLK
  5
21
330
1F
100
AcDbEntity
  8
0
100
AcDbBlockEnd
  0
BLOCK
  5
1C
330
1B
100
AcDbEntity
  8
0
100
AcDbBlockBegin
  2
*Paper_Space
 70
    0
 10
0
 20
0
 30
0
  3
*Paper_Space
  1

  0
ENDBLK
  5
1D
330
1F
100
AcDbEntity
  8
0
100
AcDbBlockEnd
  0
BLOCK
  5
61
330
60
100
AcDbEntity
  8
0
100
AcDbBlockBegin
  2
Tent_10x10
 70
    0
 10
0
 20
0
  3
Tent_10x10
  1

  0
LINE
  5
6F
100
AcDbEntity
  8
0
  6
CONTINUOUS
 62
  256
370
   50
100
AcDbLine
 10
0
 20
0
 11
0
 21
10
  0
LINE
  5
70
100
AcDbEntity
  8
0
  6
CONTINUOUS
 62
  256
370
   50
100
AcDbLine
 10
0
 20
10
 11
10
 21
10
  0
LINE
  5
71
100
AcDbEntity
  8
0
  6
CONTINUOUS
 62
  256
370
   50
100
AcDbLine
 10
10
 20
10
 11
10
 21
0
  0
LINE
  5
72
100
AcDbEntity
  8
0
  6
DOTTINY
 62
  256
370
   25
100
AcDbLine
 10
10
 20
0
 11
0
 21
0
  0
LINE
  5
73
100
AcDbEntity
  8
0
  6
DOTTINY
 62
  256
370
   25
100
AcDbLine
 10
0
 20
10
 11
10
 21
0
  0
LINE
  5
74
100
AcDbEntity
  8
0
  6
DOTTINY
 62
  256
370
   25
100
AcDbLine
 10
10
 20
0
 11
10
 21
10
  0
LINE
  5
75
100
AcDbEntity
  8
0
  6
DOTTINY
 62
  256
370
   25
100
AcDbLine
 10
10
 20
10
 11
0
 21
0
  0
ENDBLK
  5
62
330
60
100
AcDbEntity
  8
0
100
AcDbBlockEnd
  0
BLOCK
  5
64
330
63
100
AcDbEntity
  8
0
100
AcDbBlockBegin
  2
Tent_10x20
 70
    0
 10
0
 20
0
  3
Tent_10x20
  1

  0
LWPOLYLINE
  5
76
100
AcDbEntity
  8
0
  6
ByLayer
 62
  256
370
   50
100
AcDbPolyline
 90
    4
 70
    1
 43
0
 10
-5
 20
-10
 10
5
 20
-10
 10
5
 20
10
 10
-5
 20
10
  0
LWPOLYLINE
  5
77
100
AcDbEntity
  8
0
  6
ByLayer
 62
  256
370
   50
100
AcDbPolyline
 90
    4
 70
    1
 43
0
 10
-4
 20
9
 10
4
 20
9
 10
4
 20
-9
 10
-4
 20
-9
  0
LWPOLYLINE
  5
78
100
AcDbEntity
  8
0
  6
ByLayer
 62
  256
370
   50
100
AcDbPolyline
 90
    4
 70
    1
 43
0
 10
-3
 20
8
 10
3
 20
8
 10
3
 20
-8
 10
-3
 20
-8
  0
ENDBLK
  5
65
330
63
100
AcDbEntity
  8
0
100
AcDbBlockEnd
  0
BLOCK
  5
67
330
66
100
AcDbEntity
  8
0
100
AcDbBlockBegin
  2
FoldedTarp_10x5
 70
    0
 10
0
 20
0
  3
FoldedTarp_10x5
  1

  0
LWPOLYLINE
  5
79
100
AcDbEntity
  8
0
  6
ByLayer
 62
  256
370
   50
100
AcDbPolyline
 90
    4
 70
    1
 43
0
 10
-5
 20
-5
 10
5
 20
-5
 10
5
 20
0
 10
-5
 20
0
  0
LWPOLYLINE
  5
7A
100
AcDbEntity
  8
0
  6
ByLayer
 62
  256
370
   50
100
AcDbPolyline
 90
    4
 70
    1
 43
0
 10
-4
 20
-1
 10
4
 20
-1
 10
4
 20
-4
 10
-4
 20
-4
  0
ENDBLK
  5
68
330
66
100
AcDbEntity
  8
0
100
AcDbBlockEnd
  0
BLOCK
  5
6A
330
69
100
AcDbEntity
  8
0
100
AcDbBlockBegin
  2
Station_5x5
 70
    0
 10
0
 20
0
  3
Station_5x5
  1

  0
CIRCLE
  5
7B
100
AcDbEntity
  8
0
  6
ByLayer
 62
  256
370
  100
100
AcDbCircle
 10
0
 20
0
 40
2.5
  0
ENDBLK
  5
6B
330
69
100
AcDbEntity
  8
0
100
AcDbBlockEnd
  0
BLOCK
  5
6D
330
6C
100
AcDbEntity
  8
0
100
AcDbBlockBegin
  2
Tent_10x10_thru
 70
    0
 10
0
 20
0
  3
Tent_10x10_thru
  1

  0
LINE
  5
7C
100
AcDbEntity
  8
0
  6
CONTINUOUS
 62
  256
370
   50
100
AcDbLine
 10
-5
 20
-5
 11
-5
 21
5
  0
LINE
  5
7D
100
AcDbEntity
  8
0
  6
CONTINUOUS
 62
  256
370
   50
100
AcDbLine
 10
5
 20
5
 11
5
 21
-5
  0
LINE
  5
7E
100
AcDbEntity
  8
0
  6
DOTTINY
 62
  256
370
   25
100
AcDbLine
 10
5
 20
-5
 11
-5
 21
-5
  0
LINE
  5
7F
100
AcDbEntity
  8
0
  6
DOTTINY
 62
  256
370
   25
100
AcDbLine
 10
-5
 20
5
 11
5
 21
-5
  0
LINE
  5
80
100
AcDbEntity
  8
0
  6
DOTTINY
 62
  256
370
   25
100
AcDbLine
 10
5
 20
-5
 11
5
 21
5
  0
LINE
  5
81
100
AcDbEntity
  8
0
  6
DOTTINY
 62
  256
370
   25
100
AcDbLine
 10
5
 20
5
 11
-5
 21
-5
  0
LINE
  5
82
100
AcDbEntity
  8
0
  6
DOTTINY
 62
  256
370
   25
100
AcDbLine
 10
-5
 20
5
 11
5
 21
5
  0
ENDBLK
  5
6E
330
6C
100
AcDbEntity
  8
0
100
AcDbBlockEnd
  0
ENDSEC
  0
SECTION
  2
ENTITIES
  0
HATCH
  5
83
100
AcDbEntity
  8
InfraBuilding
  6
ByLayer
 62
  256
370
   -1
100
AcDbHatch
 10
0
 20
0
 30
0
210
0
220
0
230
1
  2
box
 70
    0
 71
    0
 91
    1
 92
    0
 93
   22
 72
    1
 10
170
 20
218
 11
157
 21
218
 72
    1
 10
157
 20
218
 11
157
 21
226
 72
    1
 10
157
 20
226
 11
109
 21
226
 72
    1
 10
109
 20
226
 11
109
 21
219
 72
    1
 10
109
 20
219
 11
100
 21
219
 72
    1
 10
100
 20
219
 11
100
 21
222
 72
    1
 10
100
 20
222
 11
86
 21
222
 72
    1
 10
86
 20
222
 11
86
 21
219
 72
    1
 10
86
 20
219
 11
67
 21
219
 72
    1
 10
67
 20
219
 11
67
 21
177
 72
    1
 10
67
 20
177
 11
101
 21
177
 72
    1
 10
101
 20
177
 11
101
 21
114
 72
    1
 10
101
 20
114
 11
117
 21
114
 72
    1
 10
117
 20
114
 11
117
 21
104
 72
    1
 10
117
 20
104
 11
149
 21
104
 72
    1
 10
149
 20
104
 11
149
 21
107
 72
    1
 10
149
 20
107
 11
169
 21
107
 72
    1
 10
169
 20
107
 11
169
 21
138
 72
    1
 10
169
 20
138
 11
176
 21
138
 72
    1
 10
176
 20
138
 11
176
 21
189
 72
    1
 10
176
 20
189
 11
170
 21
189
 72
    1
 10
170
 20
189
 11
170
 21
218
 97
    0
 75
    0
 76
    1
 52
0
 41
0.2
 77
    0
 78
    0
 98
    0
  0
IMAGE
  5
86
100
AcDbEntity
  8
MapStreet
  6
ByLayer
 62
  256
370
   -1
100
AcDbRasterImage
 10
0
 20
0
 30
0
 11
0.1645
 21
0
 31
0
 12
1.007238726018905e-17
 22
0.1645
 32
0
 13
2072
 23
3264
340
84
 70
    1
280
    0
281
   50
282
   50
283
    0
360
85
  0
IMAGE
  5
89
100
AcDbEntity
  8
MapSatDark
  6
ByLayer
 62
  256
370
   -1
100
AcDbRasterImage
 10
0
 20
0
 30
0
 11
0.1645
 21
0
 31
0
 12
1.007238726018905e-17
 22
0.1645
 32
0
 13
2072
 23
3264
340
87
 70
    1
280
    0
281
   50
282
   50
283
    0
360
88
  0
IMAGE
  5
8C
100
AcDbEntity
  8
MapSatLight
  6
ByLayer
 62
  256
370
   -1
100
AcDbRasterImage
 10
0
 20
0
 30
0
 11
0.1645
 21
0
 31
0
 12
1.007238726018905e-17
 22
0.1645
 32
0
 13
2072
 23
3264
340
8A
 70
    1
280
    0
281
   50
282
   50
283
    0
360
8B
  0
INSERT
  5
8D
100
AcDbEntity
  8
RoleLiaison
  6
ByLayer
 62
  256
370
   -1
100
AcDbBlockReference
  2
Tent_10x10
 10
180
 20
110
 30
0
 41
1
 42
1
 43
0
 50
0
 70
    1
 71
    1
 44
1
 45
1
  0
INSERT
  5
8E
100
AcDbEntity
  8
0
  6
ByLayer
 62
  256
370
   -1
100
AcDbBlockReference
  2
Station_5x5
 10
0
 20
0
 30
0
 41
1
 42
1
 43
0
 50
0
 70
    1
 71
    1
 44
0
 45
0
  0
LINE
  5
8F
100
AcDbEntity
  8
InfraBuilding
  6
ByLayer
 62
  256
370
   -1
100
AcDbLine
 10
170
 20
218
 11
157
 21
218
  0
LINE
  5
90
100
AcDbEntity
  8
InfraBuilding
  6
ByLayer
 62
  256
370
   -1
100
AcDbLine
 10
157
 20
218
 11
157
 21
226
  0
LINE
  5
91
100
AcDbEntity
  8
InfraBuilding
  6
ByLayer
 62
  256
370
   -1
100
AcDbLine
 10
157
 20
226
 11
109
 21
226
  0
LINE
  5
92
100
AcDbEntity
  8
InfraBuilding
  6
ByLayer
 62
  256
370
   -1
100
AcDbLine
 10
109
 20
226
 11
109
 21
219
  0
LINE
  5
93
100
AcDbEntity
  8
InfraBuilding
  6
ByLayer
 62
  256
370
   -1
100
AcDbLine
 10
109
 20
219
 11
100
 21
219
  0
LINE
  5
94
100
AcDbEntity
  8
InfraBuilding
  6
ByLayer
 62
  256
370
   -1
100
AcDbLine
 10
100
 20
219
 11
100
 21
222
  0
LINE
  5
95
100
AcDbEntity
  8
InfraBuilding
  6
ByLayer
 62
  256
370
   -1
100
AcDbLine
 10
100
 20
222
 11
86
 21
222
  0
LINE
  5
96
100
AcDbEntity
  8
InfraBuilding
  6
ByLayer
 62
  256
370
   -1
100
AcDbLine
 10
86
 20
222
 11
86
 21
219
  0
LINE
  5
97
100
AcDbEntity
  8
InfraBuilding
  6
ByLayer
 62
  256
370
   -1
100
AcDbLine
 10
86
 20
219
 11
67
 21
219
  0
LINE
  5
98
100
AcDbEntity
  8
InfraBuilding
  6
ByLayer
 62
  256
370
   -1
100
AcDbLine
 10
67
 20
219
 11
67
 21
177
  0
LINE
  5
99
100
AcDbEntity
  8
InfraBuilding
  6
ByLayer
 62
  256
370
   -1
100
AcDbLine
 10
67
 20
177
 11
101
 21
177
  0
LINE
  5
9A
100
AcDbEntity
  8
InfraBuilding
  6
ByLayer
 62
  256
370
   -1
100
AcDbLine
 10
101
 20
177
 11
101
 21
114
  0
LINE
  5
9B
100
AcDbEntity
  8
InfraBuilding
  6
ByLayer
 62
  256
370
   -1
100
AcDbLine
 10
101
 20
114
 11
117
 21
114
  0
LINE
  5
9C
100
AcDbEntity
  8
InfraBuilding
  6
ByLayer
 62
  256
370
   -1
100
AcDbLine
 10
117
 20
114
 11
117
 21
104
  0
LINE
  5
9D
100
AcDbEntity
  8
InfraBuilding
  6
ByLayer
 62
  256
370
   -1
100
AcDbLine
 10
117
 20
104
 11
149
 21
104
  0
LINE
  5
9E
100
AcDbEntity
  8
InfraBuilding
  6
ByLayer
 62
  256
370
   -1
100
AcDbLine
 10
149
 20
104
 11
149
 21
107
  0
LINE
  5
9F
100
AcDbEntity
  8
InfraBuilding
  6
ByLayer
 62
  256
370
   -1
100
AcDbLine
 10
149
 20
107
 11
169
 21
107
  0
LINE
  5
A0
100
AcDbEntity
  8
InfraBuilding
  6
ByLayer
 62
  256
370
   -1
100
AcDbLine
 10
170
 20
218
 11
170
 21
189
  0
LINE
  5
A1
100
AcDbEntity
  8
InfraBuilding
  6
ByLayer
 62
  256
370
   -1
100
AcDbLine
 10
170
 20
189
 11
176
 21
189
  0
LINE
  5
A2
100
AcDbEntity
  8
InfraBuilding
  6
ByLayer
 62
  256
370
   -1
100
AcDbLine
 10
176
 20
189
 11
176
 21
138
  0
LINE
  5
A3
100
AcDbEntity
  8
InfraBuilding
  6
ByLayer
 62
  256
370
   -1
100
AcDbLine
 10
176
 20
138
 11
169
 21
138
  0
LINE
  5
A4
100
AcDbEntity
  8
InfraBuilding
  6
ByLayer
 62
  256
370
   -1
100
AcDbLine
 10
169
 20
138
 11
169
 21
107
  0
HATCH
  5
A5
100
AcDbEntity
  8
InfraPavement
  6
ByLayer
 62
  256
370
   -1
100
AcDbHatch
 10
0
 20
0
 30
0
210
0
220
0
230
1
  2
SOLID
 70
    1
 71
    0
 91
    1
 92
    0
 93
    8
 72
    1
 10
189.7173802880757
 20
313.7375758827542
 11
53.40689503987054
 21
315.5252543778126
 72
    1
 10
53.40689503987054
 20
315.5252543778126
 11
49.38461842598908
 21
227.0351688724204
 72
    1
 10
49.38461842598908
 20
227.0351688724204
 11
98.32231722821355
 21
226.8117090605381
 72
    1
 10
98.32231722821355
 20
226.8117090605381
 11
97.42847798068433
 21
229.2697669912434
 72
    1
 10
97.42847798068433
 20
229.2697669912434
 11
159.1033860602001
 21
227.9290081199496
 72
    1
 10
159.1033860602001
 20
227.9290081199496
 11
159.773765495847
 21
224.8005707535974
 72
    1
 10
159.773765495847
 20
224.8005707535974
 11
188.8235410405465
 21
224.8005707535974
 72
    1
 10
188.8235410405465
 20
224.8005707535974
 11
189.7173802880757
 21
313.7375758827542
 97
    0
 75
    0
 76
    1
 98
    0
  0
LINE
  5
A6
100
AcDbEntity
  8
InfraPavement
  6
ByLayer
 62
  256
370
   -1
100
AcDbLine
 10
189.7173802880757
 20
313.7375758827542
 11
53.40689503987054
 21
315.5252543778126
  0
LINE
  5
A7
100
AcDbEntity
  8
InfraPavement
  6
ByLayer
 62
  256
370
   -1
100
AcDbLine
 10
53.40689503987054
 20
315.5252543778126
 11
49.38461842598908
 21
227.0351688724204
  0
LINE
  5
A8
100
AcDbEntity
  8
InfraPavement
  6
ByLayer
 62
  256
370
   -1
100
AcDbLine
 10
49.38461842598908
 20
227.0351688724204
 11
98.32231722821355
 21
226.8117090605381
  0
LINE
  5
A9
100
AcDbEntity
  8
InfraPavement
  6
ByLayer
 62
  256
370
   -1
100
AcDbLine
 10
98.32231722821355
 20
226.8117090605381
 11
97.42847798068433
 21
229.2697669912434
  0
LINE
  5
AA
100
AcDbEntity
  8
InfraPavement
  6
ByLayer
 62
  256
370
   -1
100
AcDbLine
 10
97.42847798068433
 20
229.2697669912434
 11
159.1033860602001
 21
227.9290081199496
  0
LINE
  5
AB
100
AcDbEntity
  8
InfraPavement
  6
ByLayer
 62
  256
370
   -1
100
AcDbLine
 10
159.1033860602001
 20
227.9290081199496
 11
159.773765495847
 21
224.8005707535974
  0
LINE
  5
AC
100
AcDbEntity
  8
InfraPavement
  6
ByLayer
 62
  256
370
   -1
100
AcDbLine
 10
159.773765495847
 20
224.8005707535974
 11
188.8235410405465
 21
224.8005707535974
  0
LINE
  5
AD
100
AcDbEntity
  8
InfraPavement
  6
ByLayer
 62
  256
370
   -1
100
AcDbLine
 10
188.8235410405465
 20
224.8005707535974
 11
189.7173802880757
 21
313.7375758827542
  0
INSERT
  5
AE
100
AcDbEntity
  8
RoleMessageTaker
  6
ByLayer
 62
  256
370
   -1
100
AcDbBlockReference
  2
Tent_10x10
 10
170
 20
260
 30
0
 41
1
 42
1
 43
0
 50
0
 70
    1
 71
    1
 44
1
 45
1
  0
INSERT
  5
AF
100
AcDbEntity
  8
RoleRadio
  6
ByLayer
 62
  256
370
   -1
100
AcDbBlockReference
  2
Tent_10x20
 10
50
 20
270
 30
0
 41
1
 42
1
 43
0
 50
0
 70
    1
 71
    1
 44
1
 45
1
  0
INSERT
  5
B0
100
AcDbEntity
  8
StationPersonalPosting
  6
ByLayer
 62
  256
370
   -1
100
AcDbBlockReference
  2
FoldedTarp_10x5
 10
151
 20
314
 30
0
 41
1
 42
1
 43
0
 50
0
 70
    1
 71
    1
 44
1
 45
1
  0
INSERT
  5
B1
100
AcDbEntity
  8
StationChange
  6
ByLayer
 62
  256
370
   -1
100
AcDbBlockReference
  2
Tent_10x10
 10
75
 20
306
 30
0
 41
1
 42
1
 43
0
 50
0
 70
    1
 71
    1
 44
1
 45
1
  0
INSERT
  5
B2
100
AcDbEntity
  8
StationLoo
  6
ByLayer
 62
  256
370
   -1
100
AcDbBlockReference
  2
Station_5x5
 10
30
 20
220
 30
0
 41
1
 42
1
 43
0
 50
0
 70
    1
 71
    1
 44
1
 45
1
  0
INSERT
  5
B3
100
AcDbEntity
  8
RoleHubManager
  6
ByLayer
 62
  256
370
   -1
100
AcDbBlockReference
  2
Station_5x5
 10
102
 20
267
 30
0
 41
1
 42
1
 43
0
 50
0
 70
    1
 71
    1
 44
1
 45
1
  0
MTEXT
  5
B4
100
AcDbEntity
  8
RoleRadio
  6
ByLayer
 62
  256
370
   50
100
AcDbMText
 10
50
 20
258
 30
0
 40
2
 41
7.566666666666665
 71
    2
 72
    1
  1
RADIO
  7
iso3098
210
0
220
0
230
1
 50
0
 73
    2
 44
1
  0
MTEXT
  5
B5
100
AcDbEntity
  8
RoleHubManager
  6
ByLayer
 62
  256
370
   50
100
AcDbMText
 10
102
 20
262
 30
0
 40
2
 41
18.23111111111111
 71
    2
 72
    1
  1
HUB MANAGER
  7
iso3098
210
0
220
0
230
1
 50
0
 73
    2
 44
1
  0
MTEXT
  5
B6
100
AcDbEntity
  8
StationChange
  6
ByLayer
 62
  256
370
   50
100
AcDbMText
 10
79
 20
304
 30
0
 40
2
 41
9.513333333333332
 71
    2
 72
    1
  1
CHANGE
  7
iso3098
210
0
220
0
230
1
 50
0
 73
    2
 44
1
  0
MTEXT
  5
B7
100
AcDbEntity
  8
StationLoo
  6
ByLayer
 62
  256
370
   50
100
AcDbMText
 10
29
 20
216
 30
0
 40
2
 41
4.375555555555556
 71
    2
 72
    1
  1
LOO
  7
iso3098
210
0
220
0
230
1
 50
0
 73
    2
 44
1
  0
MTEXT
  5
B8
100
AcDbEntity
  8
StationPersonalPosting
  6
ByLayer
 62
  256
370
   50
100
AcDbMText
 10
152
 20
308
 30
0
 40
2
 41
26.00888888888889
 71
    2
 72
    1
  1
PERSONAL POSTING
  7
iso3098
210
0
220
0
230
1
 50
0
 73
    2
 44
1
  0
MTEXT
  5
B9
100
AcDbEntity
  8
RoleMessageTaker
  6
CONTINUOUS
 62
  256
370
   25
100
AcDbMText
 10
168
 20
259
 30
0
 40
2
 41
11.77777692976918
 71
    2
 72
    1
  1
MESSAGE\PTAKER
  7
standard
210
0
220
0
230
1
 50
0
 73
    2
 44
1
  0
MTEXT
  5
BA
100
AcDbEntity
  8
RoleGreeter
  6
CONTINUOUS
 62
  256
370
   25
100
AcDbMText
 10
183
 20
259
 30
0
 40
2
 41
11.11111111111124
 71
    2
 72
    1
  1
GREETER
  7
standard
210
0
220
0
230
1
 50
0
 73
    2
 44
1
  0
INSERT
  5
BB
100
AcDbEntity
  8
RoleInfo
  6
ByLayer
 62
  256
370
   -1
100
AcDbBlockReference
  2
Tent_10x10
 10
149
 20
280
 30
0
 41
1
 42
1
 43
0
 50
0
 70
    1
 71
    1
 44
1
 45
1
  0
MTEXT
  5
BC
100
AcDbEntity
  8
RoleInfo
  6
ByLayer
 62
  256
370
   50
100
AcDbMText
 10
154
 20
278
 30
0
 40
2
 41
16.8
 71
    2
 72
    1
  1
INFORMATION
  7
iso3098
210
0
220
0
230
1
 50
0
 73
    2
 44
1
  0
MTEXT
  5
BD
100
AcDbEntity
  8
RoleResources
  6
ByLayer
 62
  256
370
   50
100
AcDbMText
 10
153
 20
240
 30
0
 40
2
 41
14.58222222222222
 71
    2
 72
    1
  1
RESOURCES
  7
iso3098
210
0
220
0
230
1
 50
0
 73
    2
 44
1
  0
MTEXT
  5
BE
100
AcDbEntity
  8
RoleVolunteers
  6
ByLayer
 62
  256
370
   50
100
AcDbMText
 10
132
 20
239
 30
0
 40
2
 41
16.52444444444444
 71
    2
 72
    1
  1
VOLUNTEERS
  7
iso3098
210
0
220
0
230
1
 50
0
 73
    2
 44
1
  0
INSERT
  5
BF
100
AcDbEntity
  8
RoleResources
  6
ByLayer
 62
  256
370
   -1
100
AcDbBlockReference
  2
Tent_10x10
 10
159
 20
251
 30
0
 41
1
 42
1
 43
0
 50
180
 70
    1
 71
    1
 44
1
 45
1
  0
INSERT
  5
C0
100
AcDbEntity
  8
RoleVolunteers
  6
ByLayer
 62
  256
370
   -1
100
AcDbBlockReference
  2
Tent_10x10
 10
137
 20
251
 30
0
 41
1
 42
1
 43
0
 50
180
 70
    1
 71
    1
 44
1
 45
1
  0
MTEXT
  5
C1
100
AcDbEntity
  8
RoleLiaison
  6
ByLayer
 62
  256
370
   50
100
AcDbMText
 10
185
 20
108
 30
0
 40
2
 41
10.27555555555555
 71
    2
 72
    1
  1
LIAISON
  7
iso3098
210
0
220
0
230
1
 50
0
 73
    2
 44
1
  0
MTEXT
  5
C2
100
AcDbEntity
  8
RoleInfo
  6
ByLayer
 62
  256
370
   50
100
AcDbMText
 10
151.6377777777778
 20
284.6377777777778
 30
0
 40
4
 41
0.8311111111111109
 71
    5
 72
    1
  1
1
  7
iso3098
210
0
220
0
230
1
 50
0
 73
    2
 44
1
  0
MTEXT
  5
C3
100
AcDbEntity
  8
RoleResources
  6
ByLayer
 62
  256
370
   50
100
AcDbMText
 10
152.4
 20
247.6
 30
0
 40
4
 41
1.808888888888889
 71
    2
 72
    1
  1
2
  7
iso3098
210
0
220
0
230
1
 50
0
 73
    2
 44
1
  0
MTEXT
  5
C4
100
AcDbEntity
  8
RoleVolunteers
  6
ByLayer
 62
  256
370
   50
100
AcDbMText
 10
130.4
 20
247.3
 30
0
 40
4
 41
1.808888888888889
 71
    2
 72
    1
  1
3
  7
iso3098
210
0
220
0
230
1
 50
0
 73
    2
 44
1
  0
INSERT
  5
C5
100
AcDbEntity
  8
0
  6
ByLayer
 62
  256
370
   -1
100
AcDbBlockReference
  2
Tent_10x10_thru
 10
132
 20
285
 30
0
 41
1
 42
1
 43
0
 50
0
 70
    1
 71
    1
 44
1
 45
1
  0
INSERT
  5
C6
100
AcDbEntity
  8
0
  6
ByLayer
 62
  256
370
   -1
100
AcDbBlockReference
  2
Tent_10x10_thru
 10
132
 20
285
 30
0
 41
1
 42
1
 43
0
 50
0
 70
    1
 71
    1
 44
1
 45
1
  0
INSERT
  5
C7
100
AcDbEntity
  8
0
  6
ByLayer
 62
  256
370
   -1
100
AcDbBlockReference
  2
Tent_10x10_thru
 10
132
 20
285
 30
0
 41
1
 42
1
 43
0
 50
0
 70
    1
 71
    1
 44
1
 45
1
  0
INSERT
  5
C8
100
AcDbEntity
  8
0
  6
ByLayer
 62
  256
370
   -1
100
AcDbBlockReference
  2
Tent_10x10_thru
 10
132
 20
285
 30
0
 41
1
 42
1
 43
0
 50
0
 70
    1
 71
    1
 44
1
 45
1
  0
INSERT
  5
C9
100
AcDbEntity
  8
0
  6
ByLayer
 62
  256
370
   -1
100
AcDbBlockReference
  2
Tent_10x10_thru
 10
132
 20
285
 30
0
 41
1
 42
1
 43
0
 50
0
 70
    1
 71
    1
 44
1
 45
1
  0
INSERT
  5
CA
100
AcDbEntity
  8
0
  6
ByLayer
 62
  256
370
   -1
100
AcDbBlockReference
  2
Tent_10x10_thru
 10
134
 20
286
 30
0
 41
1
 42
1
 43
0
 50
0
 70
    1
 71
    1
 44
1
 45
1
  0
INSERT
  5
CB
100
AcDbEntity
  8
0
  6
ByLayer
 62
  256
370
   -1
100
AcDbBlockReference
  2
Tent_10x10_thru
 10
132
 20
285
 30
0
 41
1
 42
1
 43
0
 50
0
 70
    1
 71
    1
 44
1
 45
1
  0
INSERT
  5
CC
100
AcDbEntity
  8
0
  6
ByLayer
 62
  256
370
   -1
100
AcDbBlockReference
  2
Tent_10x10_thru
 10
130
 20
290
 30
0
 41
1
 42
1
 43
0
 50
0
 70
    1
 71
    1
 44
1
 45
1
  0
INSERT
  5
CD
100
AcDbEntity
  8
0
  6
ByLayer
 62
  256
370
   -1
100
AcDbBlockReference
  2
Tent_10x10_thru
 10
132
 20
285
 30
0
 41
1
 42
1
 43
0
 50
0
 70
    1
 71
    1
 44
1
 45
1
  0
INSERT
  5
CE
100
AcDbEntity
  8
0
  6
ByLayer
 62
  256
370
   -1
100
AcDbBlockReference
  2
Tent_10x10_thru
 10
132
 20
285
 30
0
 41
1
 42
1
 43
0
 50
0
 70
    1
 71
    1
 44
1
 45
1
  0
INSERT
  5
CF
100
AcDbEntity
  8
0
  6
ByLayer
 62
  256
370
   -1
100
AcDbBlockReference
  2
Tent_10x10_thru
 10
132
 20
285
 30
0
 41
1
 42
1
 43
0
 50
0
 70
    1
 71
    1
 44
1
 45
1
  0
INSERT
  5
D0
100
AcDbEntity
  8
0
  6
ByLayer
 62
  256
370
   -1
100
AcDbBlockReference
  2
Tent_10x10_thru
 10
132
 20
285
 30
0
 41
1
 42
1
 43
0
 50
0
 70
    1
 71
    1
 44
1
 45
1
  0
INSERT
  5
D1
100
AcDbEntity
  8
0
  6
ByLayer
 62
  256
370
   -1
100
AcDbBlockReference
  2
Tent_10x10_thru
 10
132
 20
285
 30
0
 41
1
 42
1
 43
0
 50
0
 70
    1
 71
    1
 44
1
 45
1
  0
INSERT
  5
D2
100
AcDbEntity
  8
0
  6
ByLayer
 62
  256
370
   -1
100
AcDbBlockReference
  2
Tent_10x10_thru
 10
132
 20
285
 30
0
 41
1
 42
1
 43
0
 50
0
 70
    1
 71
    1
 44
1
 45
1
  0
INSERT
  5
D3
100
AcDbEntity
  8
0
  6
ByLayer
 62
  256
370
   -1
100
AcDbBlockReference
  2
Tent_10x10_thru
 10
132
 20
285
 30
0
 41
1
 42
1
 43
0
 50
0
 70
    1
 71
    1
 44
1
 45
1
  0
INSERT
  5
D4
100
AcDbEntity
  8
0
  6
ByLayer
 62
  256
370
   -1
100
AcDbBlockReference
  2
Tent_10x10_thru
 10
132
 20
285
 30
0
 41
1
 42
1
 43
0
 50
0
 70
    1
 71
    1
 44
1
 45
1
  0
MTEXT
  5
D5
100
AcDbEntity
  8
RoleEducation
  6
ByLayer
 62
  256
370
   50
100
AcDbMText
 10
131
 20
278
 30
0
 40
2
 41
14.16444444444444
 71
    2
 72
    1
  1
EDUCATION
  7
iso3098
210
0
220
0
230
1
 50
0
 73
    2
 44
1
  0
MTEXT
  5
D6
100
AcDbEntity
  8
RoleEducation
  6
ByLayer
 62
  256
370
   50
100
AcDbMText
 10
130.9
 20
284.8
 30
0
 40
4
 41
2.222222222222221
 71
    5
 72
    1
  1
4
  7
iso3098
210
0
220
0
230
1
 50
0
 73
    2
 44
1
  0
INSERT
  5
D7
100
AcDbEntity
  8
RoleEducation
  6
ByLayer
 62
  256
370
   -1
100
AcDbBlockReference
  2
Tent_10x10_thru
 10
132
 20
285
 30
0
 41
1
 42
1
 43
0
 50
0
 70
    1
 71
    1
 44
1
 45
1
  0
ENDSEC
  0
SECTION
  2
OBJECTS
  0
DICTIONARY
  5
C
330
0
100
AcDbDictionary
281
    1
  3
ACAD_GROUP
350
D
  3
ACAD_IMAGE_DICT
350
D8
  0
DICTIONARY
  5
D
330
C
100
AcDbDictionary
281
    1
  0
IMAGEDEF_REACTOR
  5
85
330
86
100
AcDbRasterImageDefReactor
 90
    2
330
86
  0
IMAGEDEF_REACTOR
  5
88
330
89
100
AcDbRasterImageDefReactor
 90
    2
330
89
  0
IMAGEDEF_REACTOR
  5
8B
330
8C
100
AcDbRasterImageDefReactor
 90
    2
330
8C
  0
DICTIONARY
  5
D8
330
C
100
AcDbDictionary
281
    1
  3
street_view
350
84
  3
sat_view
350
87
  3
sat_view_light
350
8A
  0
IMAGEDEF
  5
84
102
{ACAD_REACTORS
330
85
102
}
100
AcDbRasterImageDef
 90
    0
  1
C:/Users/mark/Documents/Hubster/map_cad/./street_view.jpg
 10
2072
 20
3264
 11
1
 21
1
280
    1
281
    0
  0
IMAGEDEF
  5
87
102
{ACAD_REACTORS
330
88
102
}
100
AcDbRasterImageDef
 90
    0
  1
C:/Users/mark/Documents/Hubster/map_cad/./sat_view.jpg
 10
2072
 20
3264
 11
1
 21
1
280
    1
281
    0
  0
IMAGEDEF
  5
8A
102
{ACAD_REACTORS
330
8B
102
}
100
AcDbRasterImageDef
 90
    0
  1
C:/Users/mark/Documents/Hubster/map_cad/./sat_view_light.png
 10
2072
 20
3264
 11
1
 21
1
280
    1
281
    0
  0
PLOTSETTINGS
  5
D9
100
AcDbPlotSettings
  6
1x1
 40
4.23
 41
4.23
 42
4.23
 43
4.23
  0
ENDSEC
  0
EOF
